<svg width="23" height="24" viewBox="0 0 23 24" fill="none" xmlns="http://www.w3.org/2000/svg">
<g id="fluent:copy-32-regular">
<path id="Vector" d="M8.58796 2.17285C7.9784 2.17285 7.39381 2.415 6.96278 2.84602C6.53176 3.27705 6.28961 3.86165 6.28961 4.47121V17.2006C6.28961 17.5024 6.34906 17.8013 6.46456 18.0801C6.58006 18.359 6.74936 18.6123 6.96278 18.8258C7.1762 19.0392 7.42957 19.2085 7.70842 19.324C7.98727 19.4395 8.28614 19.4989 8.58796 19.4989H17.0742C17.376 19.4989 17.6749 19.4395 17.9538 19.324C18.2326 19.2085 18.486 19.0392 18.6994 18.8258C18.9128 18.6123 19.0821 18.359 19.1976 18.0801C19.3131 17.8013 19.3726 17.5024 19.3726 17.2006V4.47121C19.3726 3.86165 19.1304 3.27705 18.6994 2.84602C18.2684 2.415 17.6838 2.17285 17.0742 2.17285H8.58796ZM7.70398 4.47121C7.70398 3.98325 8.10001 3.58723 8.58796 3.58723H17.0742C17.5622 3.58723 17.9582 3.98325 17.9582 4.47121V17.2006C17.9582 17.6885 17.5622 18.0846 17.0742 18.0846H8.58796C8.10001 18.0846 7.70398 17.6885 7.70398 17.2006V4.47121ZM5.22883 4.8241C4.39859 5.17062 3.81445 5.99025 3.81445 6.94566V17.3774C3.81445 17.981 3.93335 18.5788 4.16436 19.1365C4.39536 19.6942 4.73396 20.2009 5.1608 20.6277C6.02285 21.4898 7.19204 21.9741 8.41117 21.9741H14.5991C15.0529 21.9742 15.4967 21.84 15.8744 21.5883C16.2521 21.3366 16.5468 20.9787 16.7213 20.5597H8.41117C7.56716 20.5597 6.75772 20.2244 6.16091 19.6276C5.56411 19.0308 5.22883 18.2214 5.22883 17.3774V4.8241Z" fill="#718096"/>
</g>
</svg>
