<svg width="35" height="34" viewBox="0 0 35 34" fill="none" xmlns="http://www.w3.org/2000/svg">
<path d="M9.00608 31.4875L9.58945 24.7562M9.00608 31.4875C8.99207 31.6505 9.01385 31.8145 9.06989 31.9681C9.12594 32.1218 9.2149 32.2613 9.33054 32.3769C9.44618 32.4926 9.58571 32.5815 9.73934 32.6376C9.89298 32.6936 10.057 32.7154 10.22 32.7014L9.58945 24.7562M9.00608 31.4875L10.0023 31.5739L10.0024 31.5735M9.00608 31.4875L10.134 31.7051M9.58945 24.7562C9.61228 24.4915 9.72837 24.2434 9.91704 24.0562L9.58945 24.7562ZM10.134 31.7051C10.1341 31.7051 10.1342 31.7051 10.1343 31.7051L16.8649 31.1218L16.8653 31.1217C16.8941 31.1192 16.921 31.1066 16.9414 31.0861L16.9419 31.0856L30.8465 17.0913L30.8487 17.089L30.8532 17.0845L30.8548 17.083C31.0756 16.8632 31.2508 16.6019 31.3703 16.3142C31.4898 16.0265 31.5514 15.718 31.5514 15.4065C31.5514 15.095 31.4898 14.7865 31.3703 14.4988C31.2508 14.2111 31.0756 13.9499 30.8548 13.7301L30.8502 13.7254L30.8502 13.7254L28.1254 10.977L28.1183 10.9734L28.0011 10.8539C27.6694 10.5155 27.2437 10.2845 26.7792 10.1908C26.315 10.0973 25.8334 10.1451 25.3968 10.3283C25.1066 10.4509 24.8434 10.6294 24.6255 10.8516L24.6163 10.8611L24.6162 10.861L10.6219 24.7656L10.6213 24.7661C10.6008 24.7864 10.5882 24.8134 10.5858 24.8421L10.5857 24.8426L10.0024 31.5732C10.0024 31.5733 10.0024 31.5734 10.0024 31.5735M10.134 31.7051C10.1164 31.7066 10.0987 31.7042 10.0821 31.6981C10.0654 31.6921 10.0502 31.6824 10.0377 31.6698C10.0251 31.6573 10.0154 31.6421 10.0093 31.6254C10.0033 31.6088 10.0009 31.5911 10.0024 31.5735M10.134 31.7051L10.0024 31.5735M10.2455 3.06533L10.2455 3.06533L10.2467 3.07022L10.2915 3.26318L10.2921 3.26547C10.6079 4.60925 11.3117 5.83059 12.316 6.77768C13.3202 7.72476 14.5807 8.35581 15.9407 8.59241L15.9411 8.59249C16.8663 8.75299 16.8663 10.0828 15.9411 10.2433L15.9407 10.2434C14.573 10.4813 13.3062 11.1181 12.2993 12.0738C11.2926 13.0293 10.5908 14.261 10.2818 15.6141C10.2817 15.6143 10.2817 15.6146 10.2816 15.6148L10.2237 15.8666L10.2233 15.8682C10.0179 16.7676 8.73377 16.7687 8.52996 15.8656L8.48665 15.6556L8.48672 15.6555L8.48409 15.6436C8.18642 14.2844 7.49069 13.0447 6.48563 12.0825C5.48081 11.1206 4.21233 10.4796 2.84187 10.2413C1.9174 10.0797 1.91729 8.75642 2.84155 8.59457C4.207 8.35695 5.47126 7.71956 6.47431 6.7631C7.4772 5.80679 8.17388 4.5745 8.47621 3.22215C8.47629 3.22178 8.47638 3.2214 8.47646 3.22103L8.51195 3.06355L8.51576 3.04663L8.51899 3.0296L8.53159 2.96296C8.73797 2.07012 10.0178 2.0676 10.2233 2.96762L10.2455 3.06533Z" fill="#0F4D92" stroke="#E4F0FF" stroke-width="2"/>
</svg>
